<svg xmlns="http://www.w3.org/2000/svg" viewBox="0 0 400 400"><path d="M123.7 46.5c-.9 1.5-2.8 12-4.3 23l-2.8 20.3-12.3-.5c-38-1.7-64.6 10.4-75.4 34.5-9.4 20.7-7 57.5 5 74.8l5.3 7.8-7.8 8.6A43.6 43.6 0 0 0 24 263l3.7 7.4-7.6 7.1c-16.8 15.7-19.2 45.9-5 61.7C30 355.5 46.3 359.9 93.7 360c72.4.2 94.6-13.7 94.6-59.2 0-43.6-12-51.8-82-56.2-42-2.7-45.4-3.6-45.4-11.7 0-8.2 5.8-12.7 14.1-11 31 6.3 68.4-1.5 84-17.5 21.7-22.4 20.7-78-1.8-97.8l-5.3-4.6 2.2-12.3c1.2-6.8 3.6-18 5.5-24.9 1.8-6.8 3.4-14.2 3.5-16.4l.2-3.9-19-.4c-17.1-.4-19.3-.1-20.6 2.4m201.5 0a156 156 0 0 0-4.2 23l-2.8 20.3-12.3-.5c-38-1.7-64.6 10.4-75.5 34.5-9.4 20.7-6.9 57.5 5 74.8l5.4 7.8-7.9 8.6a43.5 43.5 0 0 0-7.3 48.1l3.8 7.4-7.6 7.1c-16.8 15.7-19.3 45.9-5 61.7 14.7 16.2 31.1 20.6 78.5 20.7 72.3.2 94.6-13.7 94.5-59.2 0-43.6-12-51.8-82-56.2-41.9-2.7-45.3-3.6-45.3-11.7 0-8.2 5.8-12.7 14-11 31.1 6.3 68.5-1.5 84-17.5 21.7-22.4 20.7-78-1.8-97.8l-5.2-4.6 2.1-12.3c1.2-6.8 3.7-18 5.5-24.9 1.9-6.8 3.4-14.2 3.5-16.4l.2-3.9-19-.4c-17-.4-19.2-.1-20.6 2.4m-206 83.9c14.1 9.3 12.8 45-2 52.7-12.8 6.7-37.1 2.9-44.4-7-4.5-6.1-4.8-32.5-.5-39 7.3-11.2 34.2-15 47-6.7m201.5 0c14 9.3 12.7 45-2 52.7-12.9 6.7-37.2 2.9-44.5-7-4.4-6.1-4.7-32.5-.4-39 7.3-11.2 34.1-15 46.9-6.7M128.5 285.8c16.1.5 19.3 26 4.2 33.8-12.2 6.3-56.4 6.2-68.7-.1-12.6-6.5-13.3-25.5-1.3-35.1 2.5-2 6.6-2.1 32.2-.5l33.6 2m201.6 0c16 .4 19.3 25.9 4.2 33.7-12.2 6.3-56.5 6.2-68.7-.1-12.6-6.5-13.3-25.5-1.4-35.1 2.6-2 6.7-2.1 32.3-.5l33.6 2" stroke="none" fill="#000" fill-rule="evenodd"/>
  <style>
    @media (prefers-color-scheme:dark){:root{filter:invert(100%)}}
  </style>
</svg>