<svg xmlns="http://www.w3.org/2000/svg" width="256" height="256" viewBox="0 0 256 256" version="1.1">
  <path
    d="M 231.643 141.970 C 216.119 146.939, 219.363 172.716, 235.757 174.658 C 247.787 176.082, 254 170.409, 254 158 C 254 144.775, 244.395 137.888, 231.643 141.970"
    stroke="none" fill="#f99155" fill-rule="evenodd" />
  <path id="text"
    d="M 64.084 44.843 C 63.542 45.856, 62.529 51.474, 61.834 57.326 L 60.570 67.967 55.371 67.356 C 19.956 63.194, -2.423 97.414, 16.965 126.084 L 19.952 130.500 17.464 132.342 C 9.869 137.966, 6.823 152.971, 11.627 161.098 L 13.753 164.697 10.272 167.474 C -6.045 180.494, 1.287 204.459, 23.500 210.713 C 62.276 221.629, 98.394 207.298, 98.441 180.978 C 98.482 157.984, 91.334 153.072, 54.274 150.621 C 32.799 149.202, 30.989 148.696, 31.015 144.128 C 31.047 138.753, 31.506 138.616, 49.679 138.544 C 69.018 138.469, 74.617 137.006, 81.486 130.235 C 94.074 117.826, 94.363 89.809, 82.033 77.314 L 78.889 74.129 80.011 67.814 C 80.628 64.341, 82.028 57.952, 83.122 53.616 C 85.828 42.892, 85.915 43, 74.567 43 C 66.364 43, 64.936 43.251, 64.084 44.843 M 172.084 44.843 C 171.542 45.856, 170.529 51.474, 169.834 57.326 L 168.570 67.967 163.371 67.356 C 127.956 63.194, 105.577 97.414, 124.965 126.084 L 127.952 130.500 125.464 132.342 C 117.869 137.966, 114.823 152.971, 119.627 161.098 L 121.753 164.697 118.272 167.474 C 101.955 180.494, 109.287 204.459, 131.500 210.713 C 170.276 221.629, 206.394 207.298, 206.441 180.978 C 206.482 157.984, 199.334 153.072, 162.274 150.621 C 140.799 149.202, 138.989 148.696, 139.015 144.128 C 139.047 138.753, 139.506 138.616, 157.679 138.544 C 177.018 138.469, 182.617 137.006, 189.486 130.235 C 202.074 117.826, 202.363 89.809, 190.033 77.314 L 186.889 74.129 188.011 67.814 C 188.628 64.341, 190.028 57.952, 191.122 53.616 C 193.828 42.892, 193.915 43, 182.567 43 C 174.364 43, 172.936 43.251, 172.084 44.843 M 42 88.752 C 30.430 94.532, 32.793 115.838, 45.341 118.865 C 59.299 122.232, 66.500 117.048, 66.500 103.633 C 66.500 89.098, 55.130 82.192, 42 88.752 M 150 88.752 C 138.430 94.532, 140.793 115.838, 153.341 118.865 C 167.299 122.232, 174.500 117.048, 174.500 103.633 C 174.500 89.098, 163.130 82.192, 150 88.752 M 30.820 172.631 C 18.142 186.756, 40.101 198.974, 65.751 192.067 C 78.203 188.714, 77.021 173.989, 64.193 172.652 C 45.763 170.731, 32.533 170.722, 30.820 172.631 M 138.820 172.631 C 126.142 186.756, 148.101 198.974, 173.751 192.067 C 186.203 188.714, 185.021 173.989, 172.193 172.652 C 153.763 170.731, 140.533 170.722, 138.820 172.631"
    stroke="none" fill="#171717" fill-rule="evenodd" />
  <style>
    @media (prefers-color-scheme:dark) {
      #text {
        fill: #d1d1d1;
      }
    }
  </style>
</svg>